{"accessors" : [{"bufferView" : 0, "byteOffset" : 0, "componentType" : 5123, "count" : 30000, "type" : "SCALAR", "max" : [5001], "min" : [0]}, {"bufferView" : 1, "byteOffset" : 0, "componentType" : 5126, "count" : 5002, "type" : "VEC3", "max" : [0.959267795085907, 0.17647218704223633, 0.9974268078804016], "min" : [-0.9494035840034485, -0.17639242112636566, -0.983428418636322], "name" : "POSITION"}, {"bufferView" : 1, "byteOffset" : 12, "componentType" : 5126, "count" : 5002, "type" : "VEC3", "max" : [1.000003457069397, 1.0000044107437134, 0.9999969601631165], "min" : [-0.9999939799308777, -1.0000044107437134, -0.999998152256012], "name" : "NORMAL"}], "asset" : {"generator" : "Aspose.3D 25.3.0", "version" : "2.0"}, "buffers" : [{"uri" : "data:application/octet-stream;base64,", "byteLength" : 180056}], "bufferViews" : [{"buffer" : 0, "byteOffset" : 0, "byteLength" : 60000, "target" : 34963}, {"buffer" : 0, "byteOffset" : 60004, "byteLength" : 120048, "byteStride" : 24, "target" : 34962}], "meshes" : [{"primitives" : [{"attributes" : {"POSITION" : 1, "NORMAL" : 2}, "indices" : 0, "mode" : 4}], "name" : "Mesh1"}], "nodes" : [{"matrix" : [100, 0, 0, 0, 0, -4.371139000186241E-06, -99.9999999999999, 0, 0, 99.9999999999999, -4.371139000186241E-06, 0, 0, 0, 0, 1], "mesh" : 0, "name" : "Mesh1"}], "scene" : 0, "scenes" : [{"nodes" : [0]}]}